<svg width="10" height="15" viewBox="0 0 10 15" fill="none" xmlns="http://www.w3.org/2000/svg">
  <path fill-rule="evenodd" clip-rule="evenodd" d="M4.111 14.7044L0.378 11.4826C-0.120741 11.0522 -0.120741 10.3696 0.378 9.93913C0.876739 9.53043 1.69286 9.53043 2.1664 9.93913L3.76842 11.2783V1.0913C3.76842 0.521739 4.32257 0.00434783 5.00267 0.00434783C5.68277 0.00434783 6.26212 0.526087 6.26212 1.0913V11.2783L7.83895 9.93913C8.33769 9.53043 9.12862 9.53043 9.62736 9.93913C9.86414 10.1652 9.99512 10.4174 9.99512 10.687C9.99512 10.9826 9.86414 11.2522 9.62736 11.4826L5.8994 14.7044C5.76842 14.8174 5.66262 14.8869 5.47623 14.9304C5.32005 14.9739 5.18907 15 5.00267 15C4.6601 15 4.34776 14.9087 4.111 14.7044Z" fill="black"/>
</svg>