<svg width="10" height="15" viewBox="0 0 10 15" fill="none" xmlns="http://www.w3.org/2000/svg">
<path fill-rule="evenodd" clip-rule="evenodd" d="M5.88901 0.295652L9.62201 3.51739C10.1208 3.94783 10.1208 4.63043 9.62201 5.06087C9.12327 5.46957 8.30715 5.46957 7.8336 5.06087L6.23158 3.72174V13.9087C6.23158 14.4783 5.67743 14.9957 4.99733 14.9957C4.31723 14.9957 3.73788 14.4739 3.73788 13.9087V3.72174L2.16105 5.06087C1.66231 5.46957 0.871382 5.46957 0.372641 5.06087C0.135865 4.83478 0.00488281 4.58261 0.00488281 4.31304C0.00488281 4.01739 0.135865 3.74783 0.372641 3.51739L4.1006 0.295652C4.23158 0.182609 4.33738 0.113043 4.52377 0.0695652C4.67995 0.026087 4.81093 0 4.99733 0C5.3399 0 5.65224 0.0913044 5.88901 0.295652Z" fill="black"/>
</svg>
