<svg width="13" height="17" viewBox="0 0 13 17" fill="none" xmlns="http://www.w3.org/2000/svg">
<path d="M10.7031 0.5C11.4592 0.5 12.0732 1.12218 12.0732 1.8584V15.5908C12.0732 16.2187 11.7178 16.5 11.3535 16.5C11.1381 16.5 10.9239 16.4035 10.7109 16.2217L6.57129 12.6963C6.44265 12.5866 6.25871 12.5234 6.06738 12.5234C5.8759 12.5235 5.69169 12.5868 5.56348 12.6963L1.41016 16.2227C1.19798 16.4039 0.967745 16.5 0.751953 16.5C0.523885 16.4999 0.310815 16.3907 0.178711 16.2012C0.0683597 16.0426 0 15.837 0 15.5908V1.8584C0 1.12218 0.66386 0.5 1.41992 0.5H10.7031Z" fill="white"/>
<path d="M10.7031 0.5C11.4592 0.5 12.0732 1.12218 12.0732 1.8584V15.5908C12.0732 16.2187 11.7178 16.5 11.3535 16.5C11.1381 16.5 10.9239 16.4035 10.7109 16.2217L6.57129 12.6963C6.44265 12.5866 6.25871 12.5234 6.06738 12.5234C5.8759 12.5235 5.69169 12.5868 5.56348 12.6963L1.41016 16.2227C1.19798 16.4039 0.967745 16.5 0.751953 16.5C0.523885 16.4999 0.310815 16.3907 0.178711 16.2012C0.0683597 16.0426 0 15.837 0 15.5908V1.8584C0 1.12218 0.66386 0.5 1.41992 0.5H10.7031Z" stroke="#042541"/>
</svg>
