<svg width="29" height="29" viewBox="0 0 29 29" fill="none" xmlns="http://www.w3.org/2000/svg">
<path d="M7.27295 11.1087C7.27295 10.0807 7.68134 9.09471 8.40829 8.36776C9.13523 7.64082 10.1212 7.23242 11.1492 7.23242H23.7447C24.2537 7.23242 24.7578 7.33269 25.228 7.52749C25.6983 7.72229 26.1257 8.00781 26.4856 8.36776C26.8456 8.72771 27.1311 9.15503 27.3259 9.62532C27.5207 10.0956 27.6209 10.5997 27.6209 11.1087V23.7041C27.6209 24.2132 27.5207 24.7172 27.3259 25.1875C27.1311 25.6578 26.8456 26.0851 26.4856 26.4451C26.1257 26.805 25.6983 27.0906 25.228 27.2854C24.7578 27.4802 24.2537 27.5804 23.7447 27.5804H11.1492C10.6402 27.5804 10.1361 27.4802 9.66585 27.2854C9.19556 27.0906 8.76824 26.805 8.40829 26.4451C8.04834 26.0851 7.76282 25.6578 7.56801 25.1875C7.37321 24.7172 7.27295 24.2132 7.27295 23.7041V11.1087Z" stroke="currentColor" stroke-width="2" stroke-linecap="round" stroke-linejoin="round"/>
<path d="M2.93034 21.3837C2.48414 21.1302 2.11301 20.7631 1.85466 20.3196C1.59631 19.8762 1.45997 19.3723 1.45947 18.8591V4.32483C1.45947 2.72605 2.76756 1.41797 4.36633 1.41797H18.9006C19.9907 1.41797 20.5837 1.97754 21.0808 2.8714M13.0869 17.4057L15.9938 20.3125L21.8075 14.4988" stroke="currentColor" stroke-width="2" stroke-linecap="round" stroke-linejoin="round"/>
</svg>
